# xmcd
#
# Track frame offsets: 
#        150
#        25973
#        51083
#        97193
#        113853
#        135603
#        163995
#
# Disc length: 2583 seconds
#
# Revision: 4
# Processed by: cddbd v1.5.2PL0 Copyright (c) Steve Scherf et al.
# Submitted via: ExactAudioCopyFreeDBPlugin 1.0
#
DISCID=600a1507
DTITLE=BluesianaTriangle - BluesianaTriangle
DYEAR=1990
DGENRE=Blues
TTITLE0=Heads Up
TTITLE1=Life's a One Way Ticket
TTITLE2=Shoo Fly Don't Bother Me
TTITLE3=Need To Be Loved
TTITLE4=Next Time You See Me
TTITLE5=When The Saints Go Marchin' In
TTITLE6=For All We Know
EXTD=Dr. John p, org, g, voc - Art Blakey dr, voc - David "Fathead" Newm
EXTD=an sax, fl - Essiet Okon Essiet;\n1990 Windham Hill Records, WD-01
EXTD=25\nProduced by Joe Ferry
EXTT0=
EXTT1=
EXTT2=
EXTT3=
EXTT4=
EXTT5=
EXTT6=
PLAYORDER=
